<svg xmlns="http://www.w3.org/2000/svg" xmlns:xlink="http://www.w3.org/1999/xlink" width="250" zoomAndPan="magnify" viewBox="0 0 187.5 50.999998" height="68" preserveAspectRatio="xMidYMid meet" version="1.0"><defs><g/><clipPath id="fdbbbd8cf8"><path d="M 0 0.0664062 L 187 0.0664062 L 187 50.929688 L 0 50.929688 Z M 0 0.0664062 " clip-rule="nonzero"/></clipPath><clipPath id="8e3c4fdf4f"><path d="M 0 35.371094 L 187 35.371094 L 187 35.609375 L 0 35.609375 Z M 0 35.371094 " clip-rule="nonzero"/></clipPath></defs><g clip-path="url(#fdbbbd8cf8)"><path fill="#ffffff" d="M 0 0.0664062 L 187.5 0.0664062 L 187.5 58.566406 L 0 58.566406 Z M 0 0.0664062 " fill-opacity="1" fill-rule="nonzero"/><path fill="#ffffff" d="M 0 0.0664062 L 187.5 0.0664062 L 187.5 51.066406 L 0 51.066406 Z M 0 0.0664062 " fill-opacity="1" fill-rule="nonzero"/><path fill="#ffffff" d="M 0 0.0664062 L 187.5 0.0664062 L 187.5 51.066406 L 0 51.066406 Z M 0 0.0664062 " fill-opacity="1" fill-rule="nonzero"/></g><g fill="#000000" fill-opacity="1"><g transform="translate(68.637559, 31.326645)"><g><path d="M 9.453125 0.3125 C 7.066406 0.300781 5.117188 -0.457031 3.609375 -1.96875 C 2.109375 -3.476562 1.359375 -5.46875 1.359375 -7.9375 C 1.359375 -10.414062 2.109375 -12.410156 3.609375 -13.921875 C 5.117188 -15.429688 7.113281 -16.1875 9.59375 -16.1875 C 11.613281 -16.1875 13.40625 -15.671875 14.96875 -14.640625 L 15.421875 -11.453125 L 15.21875 -11.453125 C 14.882812 -12.753906 14.207031 -13.753906 13.1875 -14.453125 C 12.175781 -15.148438 10.976562 -15.5 9.59375 -15.5 C 7.613281 -15.5 6.03125 -14.8125 4.84375 -13.4375 C 3.65625 -12.0625 3.0625 -10.238281 3.0625 -7.96875 C 3.0625 -5.707031 3.644531 -3.882812 4.8125 -2.5 C 5.988281 -1.125 7.535156 -0.410156 9.453125 -0.359375 C 11.148438 -0.359375 12.5625 -0.820312 13.6875 -1.75 C 14.914062 -2.738281 15.660156 -4.363281 15.921875 -6.625 L 16.09375 -6.625 L 15.828125 -3.0625 C 14.453125 -0.8125 12.328125 0.3125 9.453125 0.3125 Z M 9.453125 0.3125 "/></g></g></g><g fill="#c81a85" fill-opacity="1"><g transform="translate(86.324471, 31.326645)"><g><path d="M 14.21875 -8.5 C 13.894531 -8.5 13.671875 -8.421875 13.546875 -8.265625 C 13.421875 -8.109375 13.359375 -7.957031 13.359375 -7.8125 C 13.359375 -7.664062 13.390625 -7.425781 13.453125 -7.09375 C 13.523438 -6.757812 13.5625 -6.320312 13.5625 -5.78125 C 13.5625 -4.582031 13.28125 -3.492188 12.71875 -2.515625 C 13.257812 -2.046875 13.6875 -1.6875 14 -1.4375 C 14.320312 -1.1875 14.738281 -0.925781 15.25 -0.65625 C 15.769531 -0.394531 16.25 -0.253906 16.6875 -0.234375 L 16.6875 0 C 16.664062 0 16.539062 0 16.3125 0 C 16.082031 0 15.914062 0 15.8125 0 C 15.71875 0 15.535156 -0.00390625 15.265625 -0.015625 C 15.003906 -0.0351562 14.789062 -0.0625 14.625 -0.09375 C 14.457031 -0.132812 14.238281 -0.1875 13.96875 -0.25 C 13.695312 -0.3125 13.453125 -0.394531 13.234375 -0.5 C 12.691406 -0.738281 12.21875 -1.019531 11.8125 -1.34375 C 10.738281 -0.289062 9.34375 0.234375 7.625 0.234375 C 5.414062 0.234375 3.707031 -0.226562 2.5 -1.15625 C 1.289062 -2.082031 0.6875 -3.390625 0.6875 -5.078125 C 0.6875 -6.953125 1.597656 -8.347656 3.421875 -9.265625 C 2.847656 -10.191406 2.5625 -11.207031 2.5625 -12.3125 C 2.5625 -13.425781 2.96875 -14.347656 3.78125 -15.078125 C 4.632812 -15.816406 5.75 -16.1875 7.125 -16.1875 C 7.894531 -16.1875 8.625 -16.035156 9.3125 -15.734375 C 10.007812 -15.441406 10.5625 -15.054688 10.96875 -14.578125 L 10.5625 -12.015625 L 10.34375 -12.015625 C 10.34375 -13.109375 10.046875 -13.960938 9.453125 -14.578125 C 8.859375 -15.191406 8.101562 -15.5 7.1875 -15.5 C 6.28125 -15.5 5.539062 -15.195312 4.96875 -14.59375 C 4.40625 -13.988281 4.125 -13.234375 4.125 -12.328125 C 4.125 -11.421875 4.398438 -10.566406 4.953125 -9.765625 C 5.515625 -8.960938 6.613281 -7.835938 8.25 -6.390625 C 9.882812 -4.941406 11.078125 -3.898438 11.828125 -3.265625 C 12.148438 -3.960938 12.3125 -4.679688 12.3125 -5.421875 C 12.3125 -6.160156 12.148438 -6.859375 11.828125 -7.515625 C 11.503906 -8.171875 11.023438 -8.5 10.390625 -8.5 L 10.046875 -8.5 L 10.046875 -8.734375 L 14.5625 -8.734375 L 14.5625 -8.5 Z M 11.046875 -2 C 7.171875 -5.1875 4.75 -7.429688 3.78125 -8.734375 C 2.8125 -7.828125 2.328125 -6.644531 2.328125 -5.1875 C 2.328125 -3.726562 2.789062 -2.570312 3.71875 -1.71875 C 4.65625 -0.875 5.957031 -0.453125 7.625 -0.453125 C 9.007812 -0.453125 10.148438 -0.96875 11.046875 -2 Z M 11.046875 -2 "/></g></g></g><g fill="#000000" fill-opacity="1"><g transform="translate(101.42577, 31.326645)"><g><path d="M 9.453125 0.3125 C 7.066406 0.300781 5.117188 -0.457031 3.609375 -1.96875 C 2.109375 -3.476562 1.359375 -5.46875 1.359375 -7.9375 C 1.359375 -10.414062 2.109375 -12.410156 3.609375 -13.921875 C 5.117188 -15.429688 7.113281 -16.1875 9.59375 -16.1875 C 11.613281 -16.1875 13.40625 -15.671875 14.96875 -14.640625 L 15.421875 -11.453125 L 15.21875 -11.453125 C 14.882812 -12.753906 14.207031 -13.753906 13.1875 -14.453125 C 12.175781 -15.148438 10.976562 -15.5 9.59375 -15.5 C 7.613281 -15.5 6.03125 -14.8125 4.84375 -13.4375 C 3.65625 -12.0625 3.0625 -10.238281 3.0625 -7.96875 C 3.0625 -5.707031 3.644531 -3.882812 4.8125 -2.5 C 5.988281 -1.125 7.535156 -0.410156 9.453125 -0.359375 C 11.148438 -0.359375 12.5625 -0.820312 13.6875 -1.75 C 14.914062 -2.738281 15.660156 -4.363281 15.921875 -6.625 L 16.09375 -6.625 L 15.828125 -3.0625 C 14.453125 -0.8125 12.328125 0.3125 9.453125 0.3125 Z M 9.453125 0.3125 "/></g></g></g><g fill="#000000" fill-opacity="1"><g transform="translate(76.081135, 4.78781)"><g><path d="M 2.03125 -3.53125 C 2.269531 -3.53125 2.5 -3.484375 2.71875 -3.390625 C 2.945312 -3.304688 3.148438 -3.179688 3.328125 -3.015625 L 3.078125 -2.71875 C 2.796875 -3.007812 2.453125 -3.15625 2.046875 -3.15625 C 1.640625 -3.15625 1.296875 -3.019531 1.015625 -2.75 C 0.742188 -2.476562 0.609375 -2.148438 0.609375 -1.765625 C 0.609375 -1.378906 0.75 -1.050781 1.03125 -0.78125 C 1.3125 -0.507812 1.648438 -0.375 2.046875 -0.375 C 2.441406 -0.375 2.785156 -0.515625 3.078125 -0.796875 L 3.328125 -0.515625 C 2.941406 -0.160156 2.503906 0.015625 2.015625 0.015625 C 1.515625 0.015625 1.085938 -0.15625 0.734375 -0.5 C 0.378906 -0.84375 0.203125 -1.265625 0.203125 -1.765625 C 0.203125 -2.253906 0.378906 -2.671875 0.734375 -3.015625 C 1.085938 -3.359375 1.519531 -3.53125 2.03125 -3.53125 Z M 2.03125 -3.53125 "/></g></g></g><g fill="#000000" fill-opacity="1"><g transform="translate(80.666396, 4.78781)"><g><path d="M 2.84375 0 L 2.109375 -1.125 C 2.003906 -1.113281 1.925781 -1.109375 1.875 -1.109375 L 0.9375 -1.109375 L 0.9375 0 L 0.53125 0 L 0.53125 -3.515625 L 1.875 -3.515625 C 2.3125 -3.515625 2.648438 -3.410156 2.890625 -3.203125 C 3.140625 -3.003906 3.265625 -2.71875 3.265625 -2.34375 C 3.265625 -2.050781 3.195312 -1.804688 3.0625 -1.609375 C 2.925781 -1.421875 2.726562 -1.285156 2.46875 -1.203125 L 3.296875 0 Z M 0.9375 -1.5 L 1.875 -1.5 C 2.195312 -1.5 2.441406 -1.566406 2.609375 -1.703125 C 2.785156 -1.847656 2.875 -2.054688 2.875 -2.328125 C 2.875 -2.597656 2.785156 -2.800781 2.609375 -2.9375 C 2.441406 -3.070312 2.195312 -3.140625 1.875 -3.140625 L 0.9375 -3.140625 Z M 0.9375 -1.5 "/></g></g></g><g fill="#000000" fill-opacity="1"><g transform="translate(85.367544, 4.78781)"><g><path d="M 2.765625 -0.890625 L 0.84375 -0.890625 L 0.453125 0 L 0.015625 0 L 1.59375 -3.515625 L 2.015625 -3.515625 L 3.59375 0 L 3.15625 0 Z M 2.59375 -1.28125 L 1.796875 -3.0625 L 1.015625 -1.28125 Z M 2.59375 -1.28125 "/></g></g></g><g fill="#000000" fill-opacity="1"><g transform="translate(90.043499, 4.78781)"><g><path d="M 2.03125 -3.53125 C 2.269531 -3.53125 2.5 -3.484375 2.71875 -3.390625 C 2.945312 -3.304688 3.148438 -3.179688 3.328125 -3.015625 L 3.078125 -2.71875 C 2.796875 -3.007812 2.453125 -3.15625 2.046875 -3.15625 C 1.640625 -3.15625 1.296875 -3.019531 1.015625 -2.75 C 0.742188 -2.476562 0.609375 -2.148438 0.609375 -1.765625 C 0.609375 -1.378906 0.75 -1.050781 1.03125 -0.78125 C 1.3125 -0.507812 1.648438 -0.375 2.046875 -0.375 C 2.441406 -0.375 2.785156 -0.515625 3.078125 -0.796875 L 3.328125 -0.515625 C 2.941406 -0.160156 2.503906 0.015625 2.015625 0.015625 C 1.515625 0.015625 1.085938 -0.15625 0.734375 -0.5 C 0.378906 -0.84375 0.203125 -1.265625 0.203125 -1.765625 C 0.203125 -2.253906 0.378906 -2.671875 0.734375 -3.015625 C 1.085938 -3.359375 1.519531 -3.53125 2.03125 -3.53125 Z M 2.03125 -3.53125 "/></g></g></g><g fill="#000000" fill-opacity="1"><g transform="translate(94.628761, 4.78781)"><g><path d="M 2.921875 0 L 1.625 -1.671875 L 0.9375 -0.921875 L 0.9375 0 L 0.53125 0 L 0.53125 -3.515625 L 0.9375 -3.515625 L 0.9375 -1.5 L 2.828125 -3.515625 L 3.3125 -3.515625 L 1.90625 -2 L 3.40625 0 Z M 2.921875 0 "/></g></g></g><g fill="#000000" fill-opacity="1"><g transform="translate(99.208984, 4.78781)"><g><path d="M 2.921875 -3.140625 L 0.9375 -3.140625 L 0.9375 -1.984375 L 2.71875 -1.984375 L 2.71875 -1.59375 L 0.9375 -1.59375 L 0.9375 -0.375 L 2.984375 -0.375 L 2.984375 0 L 0.53125 0 L 0.53125 -3.515625 L 2.921875 -3.515625 Z M 2.921875 -3.140625 "/></g></g></g><g fill="#000000" fill-opacity="1"><g transform="translate(103.54736, 4.78781)"><g><path d="M 2.84375 0 L 2.109375 -1.125 C 2.003906 -1.113281 1.925781 -1.109375 1.875 -1.109375 L 0.9375 -1.109375 L 0.9375 0 L 0.53125 0 L 0.53125 -3.515625 L 1.875 -3.515625 C 2.3125 -3.515625 2.648438 -3.410156 2.890625 -3.203125 C 3.140625 -3.003906 3.265625 -2.71875 3.265625 -2.34375 C 3.265625 -2.050781 3.195312 -1.804688 3.0625 -1.609375 C 2.925781 -1.421875 2.726562 -1.285156 2.46875 -1.203125 L 3.296875 0 Z M 0.9375 -1.5 L 1.875 -1.5 C 2.195312 -1.5 2.441406 -1.566406 2.609375 -1.703125 C 2.785156 -1.847656 2.875 -2.054688 2.875 -2.328125 C 2.875 -2.597656 2.785156 -2.800781 2.609375 -2.9375 C 2.441406 -3.070312 2.195312 -3.140625 1.875 -3.140625 L 0.9375 -3.140625 Z M 0.9375 -1.5 "/></g></g></g><g fill="#000000" fill-opacity="1"><g transform="translate(108.248509, 4.78781)"><g><path d="M 1.578125 -3.53125 C 1.992188 -3.53125 2.367188 -3.421875 2.703125 -3.203125 L 2.53125 -2.828125 C 2.226562 -3.023438 1.898438 -3.125 1.546875 -3.125 C 1.328125 -3.125 1.148438 -3.082031 1.015625 -3 C 0.878906 -2.925781 0.8125 -2.8125 0.8125 -2.65625 C 0.8125 -2.519531 0.859375 -2.40625 0.953125 -2.3125 C 1.046875 -2.21875 1.164062 -2.144531 1.3125 -2.09375 C 1.46875 -2.050781 1.628906 -2 1.796875 -1.9375 C 1.960938 -1.882812 2.117188 -1.828125 2.265625 -1.765625 C 2.410156 -1.703125 2.53125 -1.597656 2.625 -1.453125 C 2.726562 -1.316406 2.78125 -1.148438 2.78125 -0.953125 C 2.78125 -0.660156 2.660156 -0.425781 2.421875 -0.25 C 2.191406 -0.0703125 1.890625 0.015625 1.515625 0.015625 C 1.253906 0.015625 1.003906 -0.03125 0.765625 -0.125 C 0.535156 -0.226562 0.332031 -0.359375 0.15625 -0.515625 L 0.34375 -0.890625 C 0.5 -0.734375 0.679688 -0.609375 0.890625 -0.515625 C 1.109375 -0.429688 1.316406 -0.390625 1.515625 -0.390625 C 1.765625 -0.390625 1.960938 -0.4375 2.109375 -0.53125 C 2.265625 -0.625 2.34375 -0.757812 2.34375 -0.9375 C 2.34375 -1.050781 2.304688 -1.148438 2.234375 -1.234375 C 2.160156 -1.328125 2.066406 -1.398438 1.953125 -1.453125 C 1.835938 -1.503906 1.707031 -1.550781 1.5625 -1.59375 C 1.425781 -1.632812 1.285156 -1.675781 1.140625 -1.71875 C 1.003906 -1.769531 0.875 -1.828125 0.75 -1.890625 C 0.632812 -1.960938 0.539062 -2.0625 0.46875 -2.1875 C 0.394531 -2.3125 0.359375 -2.457031 0.359375 -2.625 C 0.359375 -2.894531 0.46875 -3.113281 0.6875 -3.28125 C 0.914062 -3.445312 1.210938 -3.53125 1.578125 -3.53125 Z M 1.578125 -3.53125 "/></g></g></g><g fill="#000000" fill-opacity="1"><g transform="translate(70.060767, 49.891347)"><g><path d="M 2.03125 -3.53125 C 2.269531 -3.53125 2.5 -3.484375 2.71875 -3.390625 C 2.945312 -3.304688 3.148438 -3.179688 3.328125 -3.015625 L 3.078125 -2.71875 C 2.796875 -3.007812 2.453125 -3.15625 2.046875 -3.15625 C 1.640625 -3.15625 1.296875 -3.019531 1.015625 -2.75 C 0.742188 -2.476562 0.609375 -2.148438 0.609375 -1.765625 C 0.609375 -1.378906 0.75 -1.050781 1.03125 -0.78125 C 1.3125 -0.507812 1.648438 -0.375 2.046875 -0.375 C 2.441406 -0.375 2.785156 -0.515625 3.078125 -0.796875 L 3.328125 -0.515625 C 2.941406 -0.160156 2.503906 0.015625 2.015625 0.015625 C 1.515625 0.015625 1.085938 -0.15625 0.734375 -0.5 C 0.378906 -0.84375 0.203125 -1.265625 0.203125 -1.765625 C 0.203125 -2.253906 0.378906 -2.671875 0.734375 -3.015625 C 1.085938 -3.359375 1.519531 -3.53125 2.03125 -3.53125 Z M 2.03125 -3.53125 "/></g></g></g><g fill="#000000" fill-opacity="1"><g transform="translate(74.646028, 49.891347)"><g><path d="M 2.84375 0 L 2.109375 -1.125 C 2.003906 -1.113281 1.925781 -1.109375 1.875 -1.109375 L 0.9375 -1.109375 L 0.9375 0 L 0.53125 0 L 0.53125 -3.515625 L 1.875 -3.515625 C 2.3125 -3.515625 2.648438 -3.410156 2.890625 -3.203125 C 3.140625 -3.003906 3.265625 -2.71875 3.265625 -2.34375 C 3.265625 -2.050781 3.195312 -1.804688 3.0625 -1.609375 C 2.925781 -1.421875 2.726562 -1.285156 2.46875 -1.203125 L 3.296875 0 Z M 0.9375 -1.5 L 1.875 -1.5 C 2.195312 -1.5 2.441406 -1.566406 2.609375 -1.703125 C 2.785156 -1.847656 2.875 -2.054688 2.875 -2.328125 C 2.875 -2.597656 2.785156 -2.800781 2.609375 -2.9375 C 2.441406 -3.070312 2.195312 -3.140625 1.875 -3.140625 L 0.9375 -3.140625 Z M 0.9375 -1.5 "/></g></g></g><g fill="#000000" fill-opacity="1"><g transform="translate(79.347176, 49.891347)"><g><path d="M 2.765625 -0.890625 L 0.84375 -0.890625 L 0.453125 0 L 0.015625 0 L 1.59375 -3.515625 L 2.015625 -3.515625 L 3.59375 0 L 3.15625 0 Z M 2.59375 -1.28125 L 1.796875 -3.0625 L 1.015625 -1.28125 Z M 2.59375 -1.28125 "/></g></g></g><g fill="#000000" fill-opacity="1"><g transform="translate(84.023132, 49.891347)"><g><path d="M 3.46875 0 L 3.046875 0 L 0.9375 -2.828125 L 0.9375 0 L 0.53125 0 L 0.53125 -3.515625 L 0.953125 -3.515625 L 3.0625 -0.6875 L 3.0625 -3.515625 L 3.46875 -3.515625 Z M 3.46875 0 "/></g></g></g><g fill="#000000" fill-opacity="1"><g transform="translate(89.087049, 49.891347)"><g><path d="M 0.53125 -3.515625 L 2.015625 -3.515625 C 2.367188 -3.515625 2.644531 -3.4375 2.84375 -3.28125 C 3.050781 -3.125 3.15625 -2.910156 3.15625 -2.640625 C 3.15625 -2.429688 3.097656 -2.253906 2.984375 -2.109375 C 2.867188 -1.972656 2.707031 -1.882812 2.5 -1.84375 C 2.757812 -1.8125 2.957031 -1.710938 3.09375 -1.546875 C 3.238281 -1.390625 3.3125 -1.191406 3.3125 -0.953125 C 3.3125 -0.660156 3.195312 -0.425781 2.96875 -0.25 C 2.75 -0.0820312 2.441406 0 2.046875 0 L 0.53125 0 Z M 0.9375 -3.140625 L 0.9375 -2 L 2 -2 C 2.238281 -2 2.421875 -2.046875 2.546875 -2.140625 C 2.679688 -2.242188 2.75 -2.390625 2.75 -2.578125 C 2.75 -2.753906 2.679688 -2.890625 2.546875 -2.984375 C 2.421875 -3.085938 2.238281 -3.140625 2 -3.140625 Z M 0.9375 -1.625 L 0.9375 -0.375 L 2 -0.375 C 2.289062 -0.375 2.515625 -0.425781 2.671875 -0.53125 C 2.828125 -0.644531 2.90625 -0.804688 2.90625 -1.015625 C 2.90625 -1.203125 2.820312 -1.347656 2.65625 -1.453125 C 2.5 -1.566406 2.28125 -1.625 2 -1.625 Z M 0.9375 -1.625 "/></g></g></g><g fill="#000000" fill-opacity="1"><g transform="translate(93.752927, 49.891347)"><g><path d="M 2.921875 -3.140625 L 0.9375 -3.140625 L 0.9375 -1.984375 L 2.71875 -1.984375 L 2.71875 -1.59375 L 0.9375 -1.59375 L 0.9375 -0.375 L 2.984375 -0.375 L 2.984375 0 L 0.53125 0 L 0.53125 -3.515625 L 2.921875 -3.515625 Z M 2.921875 -3.140625 "/></g></g></g><g fill="#000000" fill-opacity="1"><g transform="translate(98.091303, 49.891347)"><g><path d="M 2.84375 0 L 2.109375 -1.125 C 2.003906 -1.113281 1.925781 -1.109375 1.875 -1.109375 L 0.9375 -1.109375 L 0.9375 0 L 0.53125 0 L 0.53125 -3.515625 L 1.875 -3.515625 C 2.3125 -3.515625 2.648438 -3.410156 2.890625 -3.203125 C 3.140625 -3.003906 3.265625 -2.71875 3.265625 -2.34375 C 3.265625 -2.050781 3.195312 -1.804688 3.0625 -1.609375 C 2.925781 -1.421875 2.726562 -1.285156 2.46875 -1.203125 L 3.296875 0 Z M 0.9375 -1.5 L 1.875 -1.5 C 2.195312 -1.5 2.441406 -1.566406 2.609375 -1.703125 C 2.785156 -1.847656 2.875 -2.054688 2.875 -2.328125 C 2.875 -2.597656 2.785156 -2.800781 2.609375 -2.9375 C 2.441406 -3.070312 2.195312 -3.140625 1.875 -3.140625 L 0.9375 -3.140625 Z M 0.9375 -1.5 "/></g></g></g><g fill="#000000" fill-opacity="1"><g transform="translate(102.792452, 49.891347)"><g><path d="M 2.84375 0 L 2.109375 -1.125 C 2.003906 -1.113281 1.925781 -1.109375 1.875 -1.109375 L 0.9375 -1.109375 L 0.9375 0 L 0.53125 0 L 0.53125 -3.515625 L 1.875 -3.515625 C 2.3125 -3.515625 2.648438 -3.410156 2.890625 -3.203125 C 3.140625 -3.003906 3.265625 -2.71875 3.265625 -2.34375 C 3.265625 -2.050781 3.195312 -1.804688 3.0625 -1.609375 C 2.925781 -1.421875 2.726562 -1.285156 2.46875 -1.203125 L 3.296875 0 Z M 0.9375 -1.5 L 1.875 -1.5 C 2.195312 -1.5 2.441406 -1.566406 2.609375 -1.703125 C 2.785156 -1.847656 2.875 -2.054688 2.875 -2.328125 C 2.875 -2.597656 2.785156 -2.800781 2.609375 -2.9375 C 2.441406 -3.070312 2.195312 -3.140625 1.875 -3.140625 L 0.9375 -3.140625 Z M 0.9375 -1.5 "/></g></g></g><g fill="#000000" fill-opacity="1"><g transform="translate(107.493601, 49.891347)"><g><path d="M 0.9375 0 L 0.53125 0 L 0.53125 -3.515625 L 0.9375 -3.515625 Z M 0.9375 0 "/></g></g></g><g fill="#000000" fill-opacity="1"><g transform="translate(110.023168, 49.891347)"><g><path d="M 2.921875 -3.140625 L 0.9375 -3.140625 L 0.9375 -1.984375 L 2.71875 -1.984375 L 2.71875 -1.59375 L 0.9375 -1.59375 L 0.9375 -0.375 L 2.984375 -0.375 L 2.984375 0 L 0.53125 0 L 0.53125 -3.515625 L 2.921875 -3.515625 Z M 2.921875 -3.140625 "/></g></g></g><g fill="#000000" fill-opacity="1"><g transform="translate(114.361544, 49.891347)"><g><path d="M 1.578125 -3.53125 C 1.992188 -3.53125 2.367188 -3.421875 2.703125 -3.203125 L 2.53125 -2.828125 C 2.226562 -3.023438 1.898438 -3.125 1.546875 -3.125 C 1.328125 -3.125 1.148438 -3.082031 1.015625 -3 C 0.878906 -2.925781 0.8125 -2.8125 0.8125 -2.65625 C 0.8125 -2.519531 0.859375 -2.40625 0.953125 -2.3125 C 1.046875 -2.21875 1.164062 -2.144531 1.3125 -2.09375 C 1.46875 -2.050781 1.628906 -2 1.796875 -1.9375 C 1.960938 -1.882812 2.117188 -1.828125 2.265625 -1.765625 C 2.410156 -1.703125 2.53125 -1.597656 2.625 -1.453125 C 2.726562 -1.316406 2.78125 -1.148438 2.78125 -0.953125 C 2.78125 -0.660156 2.660156 -0.425781 2.421875 -0.25 C 2.191406 -0.0703125 1.890625 0.015625 1.515625 0.015625 C 1.253906 0.015625 1.003906 -0.03125 0.765625 -0.125 C 0.535156 -0.226562 0.332031 -0.359375 0.15625 -0.515625 L 0.34375 -0.890625 C 0.5 -0.734375 0.679688 -0.609375 0.890625 -0.515625 C 1.109375 -0.429688 1.316406 -0.390625 1.515625 -0.390625 C 1.765625 -0.390625 1.960938 -0.4375 2.109375 -0.53125 C 2.265625 -0.625 2.34375 -0.757812 2.34375 -0.9375 C 2.34375 -1.050781 2.304688 -1.148438 2.234375 -1.234375 C 2.160156 -1.328125 2.066406 -1.398438 1.953125 -1.453125 C 1.835938 -1.503906 1.707031 -1.550781 1.5625 -1.59375 C 1.425781 -1.632812 1.285156 -1.675781 1.140625 -1.71875 C 1.003906 -1.769531 0.875 -1.828125 0.75 -1.890625 C 0.632812 -1.960938 0.539062 -2.0625 0.46875 -2.1875 C 0.394531 -2.3125 0.359375 -2.457031 0.359375 -2.625 C 0.359375 -2.894531 0.46875 -3.113281 0.6875 -3.28125 C 0.914062 -3.445312 1.210938 -3.53125 1.578125 -3.53125 Z M 1.578125 -3.53125 "/></g></g></g><g clip-path="url(#8e3c4fdf4f)"><path fill="#000000" d="M 0 35.371094 L 187.570312 35.371094 L 187.570312 35.609375 L 0 35.609375 Z M 0 35.371094 " fill-opacity="1" fill-rule="nonzero"/></g></svg>